<svg version="1.1" id="Layer_1" xmlns="http://www.w3.org/2000/svg" xmlns:xlink="http://www.w3.org/1999/xlink" x="0px" y="0px"
	 width="100%" viewBox="0 0 512 512" enable-background="new 0 0 512 512" xml:space="preserve">
<path fill="#000000" opacity="1.000000" stroke="none" 
	d="
M0.999996,429.000000 
	C1.000000,286.378601 1.000000,143.757202 1.000000,1.067897 
	C171.567230,1.067897 342.134521,1.067897 513.000000,1.067897 
	C513.000000,143.355209 513.000000,285.710632 512.624695,428.567505 
	C511.353760,428.665497 510.401398,427.830200 509.573151,427.939087 
	C507.042236,428.271790 503.980682,428.278992 502.240601,429.740448 
	C500.851715,430.906982 500.383911,434.153290 500.781403,436.232910 
	C501.375458,439.340759 504.055603,440.508820 507.255798,439.975708 
	C509.171570,439.656555 511.085327,439.325623 513.000000,439.000000 
	C513.000000,463.650421 513.000000,488.300873 513.000000,512.947144 
	C342.333313,512.942993 171.666656,512.942993 1.000000,512.942993 
	C1.000000,488.568604 1.000000,464.251282 1.409589,439.408081 
	C3.420817,439.246399 5.136192,440.153290 6.597299,439.847015 
	C8.762324,439.393250 11.953626,438.531952 12.519798,437.023041 
	C13.326894,434.872070 12.964710,431.326294 11.578668,429.597748 
	C10.374778,428.096344 7.076791,428.075745 4.660603,427.830322 
	C3.492061,427.711639 2.223351,428.579041 0.999996,429.000000 
M486.703552,43.690582 
	C486.578796,43.561821 486.454041,43.433060 486.791168,42.782269 
	C489.048828,40.483646 488.129211,39.138474 485.520630,38.375572 
	C484.697876,39.636959 483.872437,40.902481 482.890411,42.408058 
	C481.870087,40.689034 481.151672,39.478649 480.524445,38.421879 
	C475.067230,39.824100 479.649323,42.256794 479.999481,44.276394 
	C478.356750,44.180069 476.936005,44.096760 475.312561,44.001564 
	C475.312561,45.404778 475.312561,46.619194 475.312561,48.091854 
	C477.001282,47.740387 478.311066,47.467785 479.642242,47.190727 
	C478.956421,49.097603 478.373840,50.717369 477.791290,52.337135 
	C478.127258,52.652782 478.463226,52.968433 478.799194,53.284081 
	C480.282166,52.255219 481.765167,51.226360 482.663788,50.602921 
	C484.291656,51.274242 485.670288,51.842773 487.048950,52.411293 
	C486.875458,50.809055 486.701935,49.206818 486.546783,47.774010 
	C487.889557,47.774010 489.283112,47.774010 490.615509,47.774010 
	C491.987946,43.804478 489.690033,43.777996 486.703552,43.690582 
M472.107208,170.013229 
	C468.789612,169.590851 468.501617,171.243759 469.404633,173.785263 
	C470.857361,173.965836 472.195587,174.132172 473.679596,174.316635 
	C472.694366,175.987839 471.949890,177.250641 471.118805,178.660339 
	C472.054779,179.477005 473.010376,180.310791 474.199982,181.348801 
	C475.371124,179.208588 476.361969,177.397888 477.376801,175.543350 
	C478.324188,177.396027 479.226501,179.160522 480.178589,181.022339 
	C481.673096,180.109650 482.774933,179.436783 483.754059,178.838837 
	C482.867096,177.256195 482.094055,175.876801 481.130341,174.157211 
	C482.924225,174.032608 484.311035,173.936295 485.586578,173.847702 
	C486.984833,169.749313 484.636047,169.799591 481.698303,169.687561 
	C481.572906,169.559265 481.447479,169.430969 481.723450,168.771301 
	C482.368988,167.565430 483.014496,166.359543 483.827057,164.841690 
	C482.373322,164.278564 481.156677,163.807281 479.922607,163.329254 
	C479.058746,165.355927 478.375519,166.958771 477.670593,168.612534 
	C475.711273,166.963470 475.823822,161.910873 471.091370,165.282181 
	C471.994171,166.685165 472.844818,168.007111 473.310028,169.703842 
	C473.183105,169.830322 473.056152,169.956787 472.107208,170.013229 
M200.500000,287.999481 
	C211.498123,287.998962 222.508743,287.686462 233.489182,288.127014 
	C239.146317,288.353973 238.993210,285.420227 239.099609,281.398315 
	C239.214508,277.055115 238.616516,274.817535 233.284882,274.875427 
	C207.624084,275.154053 181.941895,274.472412 156.303818,275.284607 
	C147.257172,275.571259 141.496384,272.292419 136.465866,265.804504 
	C133.578720,262.080963 129.872299,259.984314 125.039757,259.993195 
	C108.708305,260.023224 92.373108,259.827087 76.048492,260.162567 
	C73.008614,260.225037 69.712547,261.889038 67.056168,263.616028 
	C61.523701,267.212799 61.044266,273.230103 61.035923,279.100128 
	C60.976475,320.928741 60.930557,362.757721 61.073826,404.585907 
	C61.098526,411.797089 62.044273,419.005127 62.621254,427.000061 
	C60.964844,427.000061 58.555103,426.997620 56.145370,427.000519 
	C49.937405,427.008057 46.124626,429.651611 46.094936,433.965881 
	C46.065460,438.248810 48.953434,439.999786 56.072231,439.999847 
	C190.057343,440.000702 324.042450,440.000641 458.027557,439.998962 
	C459.527222,439.998932 461.039124,440.093689 462.524231,439.940216 
	C466.697083,439.509003 468.918243,435.380768 467.178162,431.515289 
	C465.622284,428.058960 463.073730,426.919342 459.252686,426.927826 
	C409.758423,427.037659 360.263855,427.003845 310.769348,426.987305 
	C308.703125,426.986633 306.636993,426.800964 305.126221,426.728241 
	C305.438904,420.498016 305.905090,414.910583 305.961823,409.318970 
	C306.085266,397.154907 305.708008,384.978668 306.125854,372.827728 
	C306.328033,366.947876 305.416260,363.360809 298.717957,362.084106 
	C293.366730,361.064148 293.026276,360.563141 293.014679,366.092804 
	C292.981476,381.924316 293.017395,397.755951 292.994324,413.587494 
	C292.981201,422.611267 288.589417,426.988129 279.531830,426.993530 
	C252.034882,427.009979 224.537933,427.000000 197.040985,426.999908 
	C160.711700,426.999786 124.381180,427.131958 88.054962,426.797455 
	C84.346451,426.763306 79.631393,424.825867 77.280563,422.122101 
	C75.229034,419.762665 75.590202,415.073486 75.614395,411.418457 
	C75.617630,410.931061 79.907860,410.063904 82.213913,410.060150 
	C131.041687,409.980621 179.869614,410.002319 228.697525,409.989471 
	C230.524536,409.989014 232.427658,410.138428 234.162628,409.696777 
	C237.760971,408.780762 239.233078,406.074982 238.928894,402.524963 
	C238.632294,399.063446 236.626511,397.135345 233.070175,397.025848 
	C231.571609,396.979706 230.070801,397.000519 228.571014,397.000488 
	C179.243164,396.999084 129.915253,396.968109 80.587578,397.058899 
	C76.798920,397.065857 74.892471,396.488098 74.911606,391.974945 
	C75.071999,354.146515 75.047028,316.316986 74.939995,278.488159 
	C74.928452,274.406677 76.244644,272.879211 80.411621,272.935852 
	C93.907623,273.119415 107.410110,272.876404 120.903709,273.133392 
	C123.082817,273.174896 125.708115,274.435333 127.302559,275.982208 
	C132.415268,280.942474 137.016205,286.426453 142.058456,291.464325 
	C145.622787,295.025543 149.439499,294.941254 152.228424,290.934143 
	C154.115494,288.222839 156.271057,287.975067 159.004547,287.982819 
	C172.502945,288.021179 186.001495,287.999817 200.500000,287.999481 
M341.515076,210.940643 
	C322.094757,206.590714 303.836914,209.094772 286.426849,219.159729 
	C258.721100,235.176697 244.537720,270.672516 253.729370,301.240265 
	C262.794373,331.386932 283.072845,349.287140 314.456177,354.094788 
	C333.958191,357.082336 351.522675,352.243439 367.546295,341.005615 
	C368.962250,340.012573 370.900299,339.763916 372.595825,339.169495 
	C372.921844,341.080688 373.918884,343.172211 373.461884,344.873016 
	C371.002502,354.026001 372.951263,361.681946 379.799438,368.373840 
	C391.594696,379.900024 403.147797,391.673828 414.839874,403.306122 
	C416.240448,404.699524 417.739136,406.084412 419.421600,407.089417 
	C428.662750,412.609497 441.154602,410.084167 447.999298,401.427917 
	C454.683899,392.974121 453.878113,379.660309 445.809235,371.401001 
	C434.517365,359.842651 423.028381,348.475739 411.554138,337.097076 
	C404.449249,330.051300 396.056213,328.213776 386.476532,331.095032 
	C385.399017,331.419128 383.462738,330.848846 382.790710,330.004211 
	C382.129761,329.173523 382.104706,327.233002 382.624298,326.189789 
	C383.788269,323.852905 385.565460,321.831635 386.915222,319.575531 
	C398.118042,300.850128 400.385834,280.669769 393.984863,260.214539 
	C385.989349,234.663544 368.357330,218.192749 341.515076,210.940643 
M242.147705,465.015533 
	C242.924347,466.393890 243.700989,467.772247 244.956070,469.999725 
	C236.054489,469.999725 228.592163,469.941681 221.132156,470.047119 
	C219.579086,470.069061 217.156738,470.218231 216.656693,471.136963 
	C215.347305,473.542786 213.742096,476.757812 214.428513,478.978363 
	C214.996536,480.815979 218.628113,482.738281 220.966492,482.821564 
	C232.110550,483.218231 243.276535,482.999939 254.434708,483.000000 
	C268.257507,483.000031 282.080597,483.048370 295.902985,482.973267 
	C300.814026,482.946594 303.074371,480.640686 302.999359,476.193054 
	C302.926880,471.896088 300.836456,470.025238 295.962616,470.006653 
	C287.968811,469.976135 279.974854,470.000427 271.981079,469.965729 
	C271.360779,469.963043 270.741699,469.678864 269.904327,469.471649 
	C270.075104,467.925781 270.228607,466.536163 270.398407,464.999146 
	C285.933105,464.999146 301.077545,465.017090 316.221893,464.989014 
	C321.245575,464.979675 324.733673,462.175964 324.894775,458.162689 
	C325.055023,454.170258 322.187714,452.001923 316.719696,452.001068 
	C297.067993,451.997986 277.416260,451.999908 257.764557,451.999939 
	C237.280151,451.999969 216.795700,452.019714 196.311386,451.976776 
	C193.520889,451.970917 191.127670,452.097626 189.969589,455.345642 
	C188.108932,460.564026 191.203995,464.941040 197.238098,464.973511 
	C211.893188,465.052429 226.548981,465.000824 242.147705,465.015533 
M181.054947,214.310715 
	C181.910385,215.761734 182.765808,217.212769 183.661255,218.731674 
	C180.526672,220.525940 177.370941,221.951065 174.668686,223.980103 
	C171.612213,226.275116 169.606232,229.325562 172.086472,233.309845 
	C174.421371,237.060669 177.873413,236.616119 181.211777,235.238968 
	C184.467926,233.895752 187.540085,232.106461 190.670334,230.524460 
	C192.308990,233.338516 194.048859,236.270325 195.733490,239.233536 
	C197.842834,242.943741 201.080353,244.050720 204.830933,242.501434 
	C208.250778,241.088776 209.249405,236.871307 207.376312,232.885834 
	C205.949265,229.849396 204.218491,226.955704 202.506638,223.783142 
	C205.637604,222.000885 208.323853,220.517059 210.965256,218.957260 
	C214.653488,216.779266 216.044159,212.953888 214.333954,209.864822 
	C212.156998,205.932693 209.154861,204.972473 204.922668,207.037415 
	C201.752655,208.584076 198.673172,210.316299 195.343887,212.076675 
	C193.398499,208.711258 191.931122,205.146606 189.527115,202.402481 
	C188.106567,200.780930 184.825638,199.278305 183.062408,199.844238 
	C180.777359,200.577637 177.797333,203.307251 177.618927,205.391647 
	C177.394882,208.009521 179.704788,210.844299 181.054947,214.310715 
M183.988297,460.106201 
	C183.962021,453.032410 182.985229,452.011230 176.171799,452.002106 
	C168.858307,451.992340 161.543564,452.079590 154.231735,451.968933 
	C150.119003,451.906677 147.072632,452.821503 146.990524,457.730377 
	C146.911301,462.467194 149.222076,464.922913 154.226639,464.977600 
	C161.705475,465.059387 169.209091,465.332001 176.652603,464.812866 
	C179.153732,464.638397 181.503632,462.295502 183.988297,460.106201 
M356.330200,464.999390 
	C357.329468,464.999298 358.329071,465.017029 359.327911,464.996124 
	C364.591644,464.885956 366.932953,462.795135 366.998688,458.160248 
	C367.058746,453.926300 364.722565,452.011383 359.434723,452.002869 
	C352.106842,451.991089 344.778961,451.986664 337.451111,452.004059 
	C331.463379,452.018250 329.990234,453.322266 330.000519,458.512817 
	C330.009033,462.804504 332.349548,464.924164 337.385956,464.982697 
	C343.380707,465.052429 349.376831,464.999298 356.330200,464.999390 
M22.443993,439.619843 
	C26.408464,439.743805 30.372269,439.899872 34.337601,439.982666 
	C38.228107,440.063904 40.690113,438.337067 40.950512,434.266785 
	C41.217762,430.089447 38.838276,427.393036 34.520340,427.072815 
	C31.882635,426.877197 29.064611,426.467773 26.611176,427.159790 
	C24.042467,427.884430 21.036215,429.283783 19.631964,431.347931 
	C17.872120,433.934753 18.870073,437.109711 22.443993,439.619843 
M489.864227,439.948700 
	C493.801636,439.129578 495.430420,436.582581 494.896851,432.750885 
	C494.358154,428.882477 491.850647,427.064240 488.025391,427.024414 
	C485.044281,426.993378 482.043091,426.828766 479.085388,427.100098 
	C474.950745,427.479431 472.923340,430.087250 473.065308,434.152161 
	C473.206299,438.189453 475.602814,440.011169 479.543518,439.992645 
	C482.690918,439.977844 485.838440,439.985657 489.864227,439.948700 
M269.392792,105.965485 
	C263.905579,102.875366 260.007782,103.305931 256.082489,107.435799 
	C253.504517,110.148125 253.122955,115.649521 255.292496,118.826118 
	C258.322510,123.262566 264.441681,124.492104 268.794861,121.539200 
	C273.967896,118.030167 274.398438,112.495262 269.392792,105.965485 
M131.510178,99.984985 
	C130.678040,99.794662 129.845901,99.604332 128.709686,99.344460 
	C130.073593,97.515511 131.109695,96.126137 132.178253,94.693253 
	C127.405540,90.396622 127.355682,95.972771 125.443893,97.421707 
	C124.505135,95.927437 123.566368,94.433167 122.475174,92.696259 
	C121.086746,93.545570 119.967941,94.229950 118.793831,94.948158 
	C120.287537,96.754257 121.457298,98.168655 123.219170,100.299011 
	C120.546013,99.818375 118.907928,99.523849 117.160629,99.209686 
	C117.160629,100.858932 117.160629,102.154640 117.160629,103.314980 
	C118.816078,103.314980 120.323051,103.314980 122.494911,103.314980 
	C121.071373,105.208298 120.032593,106.589874 118.761597,108.280304 
	C120.183777,108.938057 121.379196,109.490936 122.678993,110.092087 
	C123.743843,108.333199 124.591232,106.933502 125.531441,105.380493 
	C128.391281,110.442879 128.391281,110.442879 131.899261,107.903816 
	C130.992371,106.418770 130.085464,104.933723 128.796326,102.822762 
	C131.230392,103.151314 132.930008,103.380730 135.299652,103.700584 
	C134.052582,102.204391 137.350693,98.389236 131.510178,99.984985 
M190.846237,150.788177 
	C188.194855,149.945786 185.525665,148.459152 182.899551,148.531708 
	C181.578445,148.568207 179.380798,151.383377 179.288345,153.037521 
	C179.160049,155.333115 179.981537,158.808792 181.599182,159.783905 
	C183.533234,160.949753 187.242355,160.907822 189.267914,159.766159 
	C192.102615,158.168396 192.884598,154.820084 190.846237,150.788177 
M275.064484,170.218704 
	C275.905670,174.581635 278.689117,176.537506 282.909821,175.743378 
	C286.757141,175.019470 288.307404,172.090332 287.920105,168.346527 
	C287.532043,164.595642 285.106079,162.979782 281.451935,163.014130 
	C277.221771,163.053894 274.999573,165.103439 275.064484,170.218704 
M203.005859,156.856750 
	C202.591522,160.626358 203.370361,164.308624 207.538437,164.732239 
	C209.905426,164.972809 213.217606,163.451370 214.851868,161.611282 
	C217.357925,158.789581 216.281372,155.354340 213.267441,153.138657 
	C209.850677,150.626831 206.349152,151.752762 203.005859,156.856750 
M82.248528,232.279556 
	C81.576477,233.004074 80.356102,233.709122 80.329559,234.456558 
	C80.227638,237.326523 79.519630,240.966507 80.959663,242.849091 
	C82.110527,244.353607 86.163994,244.359741 88.723663,243.896225 
	C92.601997,243.193924 92.462982,239.574005 91.898163,236.699402 
	C90.935730,231.801178 86.980942,231.735397 82.248528,232.279556 
M259.970764,171.957703 
	C264.958893,167.933899 265.608215,162.124008 260.920654,160.210052 
	C258.662354,159.287994 254.947784,159.617401 253.005707,160.973785 
	C251.471985,162.044998 250.726486,165.775635 251.254730,167.926376 
	C252.152359,171.581116 255.526611,172.507156 259.970764,171.957703 
M119.706528,144.241745 
	C119.130501,143.650513 118.602280,142.612503 117.970238,142.544891 
	C115.142471,142.242371 111.603752,141.113251 109.599365,142.351212 
	C106.649597,144.173080 105.701195,147.636688 108.512016,151.219376 
	C110.997665,154.387589 113.546295,154.558212 116.931000,153.054428 
	C120.808029,151.331894 119.957787,148.080826 119.706528,144.241745 
M190.827972,31.457172 
	C186.642990,30.324350 183.480103,31.638641 182.298508,35.851158 
	C181.352676,39.223221 182.635880,42.109226 186.106125,43.469215 
	C189.672379,44.866837 193.088104,44.022358 194.492203,40.538353 
	C195.776077,37.352619 195.944153,33.562218 190.827972,31.457172 
M337.140991,53.574200 
	C336.758240,54.105160 336.011261,54.666988 336.053192,55.161961 
	C336.285339,57.901367 335.864746,61.300789 337.335968,63.138714 
	C338.507843,64.602646 342.294617,64.972855 344.516083,64.360703 
	C347.773560,63.463066 348.408447,60.235004 347.968536,57.012802 
	C347.410400,52.924694 342.959717,51.232559 337.140991,53.574200 
M41.125992,198.791351 
	C39.213760,201.863617 39.796055,205.035614 42.551327,206.673553 
	C44.620960,207.903915 48.351627,208.537048 50.123135,207.449417 
	C51.867882,206.378220 52.626728,202.831421 52.742180,200.321350 
	C52.805557,198.943558 50.674934,196.294678 49.487514,196.267990 
	C46.844780,196.208603 44.173088,197.437897 41.125992,198.791351 
M309.991058,178.347885 
	C309.473724,173.931641 306.001190,170.582275 302.413391,171.039047 
	C298.448486,171.543839 295.907349,175.092606 297.181305,179.419785 
	C297.707703,181.207764 299.763336,183.262451 301.550873,183.816269 
	C305.541260,185.052597 308.598328,183.323120 309.991058,178.347885 
M415.717499,98.450150 
	C411.806793,97.489143 407.846039,97.769577 406.770874,102.113022 
	C406.205597,104.396683 407.407410,108.044662 409.127289,109.746941 
	C411.624664,112.218765 415.322144,111.456413 417.453979,108.619057 
	C419.904266,105.357964 419.911499,101.802856 415.717499,98.450150 
M107.353676,163.035690 
	C104.302612,162.540680 101.203880,161.544952 98.226906,161.828323 
	C97.215469,161.924591 95.570404,165.434052 95.893143,167.048279 
	C96.344391,169.305237 97.945801,171.968445 99.857414,173.088516 
	C101.291603,173.928818 104.392075,173.216812 106.037575,172.123032 
	C109.019257,170.141129 108.975487,166.883667 107.353676,163.035690 
M102.946159,188.934082 
	C101.515175,184.898178 98.327911,183.192825 94.564613,184.368744 
	C91.086731,185.455505 89.138115,188.578964 90.074142,192.468979 
	C91.001358,196.322372 93.942162,197.450821 97.615112,196.988663 
	C101.895432,196.450058 103.319534,193.737411 102.946159,188.934082 
M85.064857,212.886642 
	C84.686852,216.944733 85.593735,220.339371 90.289703,220.890656 
	C93.681023,221.288803 97.200211,220.241150 97.120445,216.311752 
	C97.066750,213.666824 95.591164,210.008743 93.538353,208.683823 
	C90.226440,206.546234 86.892914,208.247223 85.064857,212.886642 
M155.089005,147.699585 
	C153.894638,150.798553 153.565765,153.982574 156.668243,155.970856 
	C158.386581,157.072083 161.175201,157.997864 162.807785,157.337479 
	C164.607391,156.609558 166.603607,154.043732 166.741119,152.149780 
	C166.895004,150.030441 165.641617,146.853638 163.954620,145.778900 
	C161.396454,144.149185 157.946701,144.003571 155.089005,147.699585 
M138.844254,141.464844 
	C133.942383,139.877686 131.276459,142.916672 130.533875,146.767044 
	C130.162170,148.694290 132.209244,152.014954 134.108231,153.244217 
	C137.256775,155.282394 140.928970,154.109100 142.416458,150.606750 
	C143.798233,147.353287 143.814484,143.665466 138.844254,141.464844 
M227.886215,158.534164 
	C226.274368,161.878845 226.430359,165.332977 229.471344,167.364365 
	C231.117676,168.464096 234.405502,168.572037 236.206512,167.657562 
	C239.548828,165.960449 241.094467,162.803238 238.928879,158.954193 
	C236.874619,155.302994 233.172745,154.920761 227.886215,158.534164 
M23.023069,73.473396 
	C25.524837,74.379829 24.540777,80.297935 29.356016,77.878227 
	C34.739067,82.180817 30.223610,73.692398 33.208927,74.896599 
	C33.362659,74.062309 33.899227,73.034027 33.594250,72.432190 
	C32.849220,70.961945 31.714890,69.688980 31.572271,69.491692 
	C29.323235,69.280914 28.001913,69.019295 26.701662,69.099457 
	C26.139977,69.134087 25.562847,69.818871 25.097542,70.308006 
	C24.374884,71.067696 23.741812,71.912605 23.023069,73.473396 
z"/>
<path fill="#2D4356" opacity="1.000000" stroke="none" 
	d="
M513.000000,438.545898 
	C511.085327,439.325623 509.171570,439.656555 507.255798,439.975708 
	C504.055603,440.508820 501.375458,439.340759 500.781403,436.232910 
	C500.383911,434.153290 500.851715,430.906982 502.240601,429.740448 
	C503.980682,428.278992 507.042236,428.271790 509.573151,427.939087 
	C510.401398,427.830200 511.353760,428.665497 512.624695,429.034485 
	C513.000000,432.030609 513.000000,435.061188 513.000000,438.545898 
z"/>
<path fill="#2D4356" opacity="1.000000" stroke="none" 
	d="
M0.999996,429.454102 
	C2.223351,428.579041 3.492061,427.711639 4.660603,427.830322 
	C7.076791,428.075745 10.374778,428.096344 11.578668,429.597748 
	C12.964710,431.326294 13.326894,434.872070 12.519798,437.023041 
	C11.953626,438.531952 8.762324,439.393250 6.597299,439.847015 
	C5.136192,440.153290 3.420817,439.246399 1.409589,438.941101 
	C1.000000,435.969391 1.000000,432.938812 0.999996,429.454102 
z"/>
<path fill="#2D4356" opacity="1.000000" stroke="none" 
	d="
M200.000000,287.999481 
	C186.001495,287.999817 172.502945,288.021179 159.004547,287.982819 
	C156.271057,287.975067 154.115494,288.222839 152.228424,290.934143 
	C149.439499,294.941254 145.622787,295.025543 142.058456,291.464325 
	C137.016205,286.426453 132.415268,280.942474 127.302559,275.982208 
	C125.708115,274.435333 123.082817,273.174896 120.903709,273.133392 
	C107.410110,272.876404 93.907623,273.119415 80.411621,272.935852 
	C76.244644,272.879211 74.928452,274.406677 74.939995,278.488159 
	C75.047028,316.316986 75.071999,354.146515 74.911606,391.974945 
	C74.892471,396.488098 76.798920,397.065857 80.587578,397.058899 
	C129.915253,396.968109 179.243164,396.999084 228.571014,397.000488 
	C230.070801,397.000519 231.571609,396.979706 233.070175,397.025848 
	C236.626511,397.135345 238.632294,399.063446 238.928894,402.524963 
	C239.233078,406.074982 237.760971,408.780762 234.162628,409.696777 
	C232.427658,410.138428 230.524536,409.989014 228.697525,409.989471 
	C179.869614,410.002319 131.041687,409.980621 82.213913,410.060150 
	C79.907860,410.063904 75.617630,410.931061 75.614395,411.418457 
	C75.590202,415.073486 75.229034,419.762665 77.280563,422.122101 
	C79.631393,424.825867 84.346451,426.763306 88.054962,426.797455 
	C124.381180,427.131958 160.711700,426.999786 197.040985,426.999908 
	C224.537933,427.000000 252.034882,427.009979 279.531830,426.993530 
	C288.589417,426.988129 292.981201,422.611267 292.994324,413.587494 
	C293.017395,397.755951 292.981476,381.924316 293.014679,366.092804 
	C293.026276,360.563141 293.366730,361.064148 298.717957,362.084106 
	C305.416260,363.360809 306.328033,366.947876 306.125854,372.827728 
	C305.708008,384.978668 306.085266,397.154907 305.961823,409.318970 
	C305.905090,414.910583 305.438904,420.498016 305.126221,426.728241 
	C306.636993,426.800964 308.703125,426.986633 310.769348,426.987305 
	C360.263855,427.003845 409.758423,427.037659 459.252686,426.927826 
	C463.073730,426.919342 465.622284,428.058960 467.178162,431.515289 
	C468.918243,435.380768 466.697083,439.509003 462.524231,439.940216 
	C461.039124,440.093689 459.527222,439.998932 458.027557,439.998962 
	C324.042450,440.000641 190.057343,440.000702 56.072231,439.999847 
	C48.953434,439.999786 46.065460,438.248810 46.094936,433.965881 
	C46.124626,429.651611 49.937405,427.008057 56.145370,427.000519 
	C58.555103,426.997620 60.964844,427.000061 62.621254,427.000061 
	C62.044273,419.005127 61.098526,411.797089 61.073826,404.585907 
	C60.930557,362.757721 60.976475,320.928741 61.035923,279.100128 
	C61.044266,273.230103 61.523701,267.212799 67.056168,263.616028 
	C69.712547,261.889038 73.008614,260.225037 76.048492,260.162567 
	C92.373108,259.827087 108.708305,260.023224 125.039757,259.993195 
	C129.872299,259.984314 133.578720,262.080963 136.465866,265.804504 
	C141.496384,272.292419 147.257172,275.571259 156.303818,275.284607 
	C181.941895,274.472412 207.624084,275.154053 233.284882,274.875427 
	C238.616516,274.817535 239.214508,277.055115 239.099609,281.398315 
	C238.993210,285.420227 239.146317,288.353973 233.489182,288.127014 
	C222.508743,287.686462 211.498123,287.998962 200.000000,287.999481 
z"/>
<path fill="#2D4356" opacity="1.000000" stroke="none" 
	d="
M341.929321,210.991119 
	C368.357330,218.192749 385.989349,234.663544 393.984863,260.214539 
	C400.385834,280.669769 398.118042,300.850128 386.915222,319.575531 
	C385.565460,321.831635 383.788269,323.852905 382.624298,326.189789 
	C382.104706,327.233002 382.129761,329.173523 382.790710,330.004211 
	C383.462738,330.848846 385.399017,331.419128 386.476532,331.095032 
	C396.056213,328.213776 404.449249,330.051300 411.554138,337.097076 
	C423.028381,348.475739 434.517365,359.842651 445.809235,371.401001 
	C453.878113,379.660309 454.683899,392.974121 447.999298,401.427917 
	C441.154602,410.084167 428.662750,412.609497 419.421600,407.089417 
	C417.739136,406.084412 416.240448,404.699524 414.839874,403.306122 
	C403.147797,391.673828 391.594696,379.900024 379.799438,368.373840 
	C372.951263,361.681946 371.002502,354.026001 373.461884,344.873016 
	C373.918884,343.172211 372.921844,341.080688 372.595825,339.169495 
	C370.900299,339.763916 368.962250,340.012573 367.546295,341.005615 
	C351.522675,352.243439 333.958191,357.082336 314.456177,354.094788 
	C283.072845,349.287140 262.794373,331.386932 253.729370,301.240265 
	C244.537720,270.672516 258.721100,235.176697 286.426849,219.159729 
	C303.836914,209.094772 322.094757,206.590714 341.929321,210.991119 
M384.187714,277.124054 
	C383.917816,274.656830 383.849426,272.147552 383.344299,269.729462 
	C380.688812,257.017578 374.599976,246.347382 365.005188,237.429916 
	C351.512634,224.889832 335.492462,219.065918 317.576355,221.302170 
	C277.447937,226.310898 253.249435,266.190735 268.187714,303.953064 
	C277.171112,326.661987 297.757294,340.877075 321.998077,341.756897 
	C348.929230,342.734406 371.482269,327.158417 380.706390,301.672760 
	C383.381012,294.283051 383.294556,285.893982 384.187714,277.124054 
M398.239777,343.877533 
	C393.496948,341.706635 389.800568,343.217957 387.256805,347.423401 
	C385.233154,350.768982 384.966248,354.394257 387.963196,357.414520 
	C400.158997,369.705353 412.331177,382.024170 424.795898,394.038177 
	C426.479187,395.660614 429.982880,396.618011 432.286591,396.144867 
	C439.341705,394.695831 441.536591,386.260468 436.307983,380.905914 
	C425.025146,369.351349 413.521545,358.011993 402.066803,346.626282 
	C401.148834,345.713837 399.911652,345.122589 398.239777,343.877533 
z"/>
<path fill="#0BCEB2" opacity="1.000000" stroke="none" 
	d="
M241.676102,465.008667 
	C226.548981,465.000824 211.893188,465.052429 197.238098,464.973511 
	C191.203995,464.941040 188.108932,460.564026 189.969589,455.345642 
	C191.127670,452.097626 193.520889,451.970917 196.311386,451.976776 
	C216.795700,452.019714 237.280151,451.999969 257.764557,451.999939 
	C277.416260,451.999908 297.067993,451.997986 316.719696,452.001068 
	C322.187714,452.001923 325.055023,454.170258 324.894775,458.162689 
	C324.733673,462.175964 321.245575,464.979675 316.221893,464.989014 
	C301.077545,465.017090 285.933105,464.999146 270.398407,464.999146 
	C270.228607,466.536163 270.075104,467.925781 269.904327,469.471649 
	C270.741699,469.678864 271.360779,469.963043 271.981079,469.965729 
	C279.974854,470.000427 287.968811,469.976135 295.962616,470.006653 
	C300.836456,470.025238 302.926880,471.896088 302.999359,476.193054 
	C303.074371,480.640686 300.814026,482.946594 295.902985,482.973267 
	C282.080597,483.048370 268.257507,483.000031 254.434708,483.000000 
	C243.276535,482.999939 232.110550,483.218231 220.966492,482.821564 
	C218.628113,482.738281 214.996536,480.815979 214.428513,478.978363 
	C213.742096,476.757812 215.347305,473.542786 216.656693,471.136963 
	C217.156738,470.218231 219.579086,470.069061 221.132156,470.047119 
	C228.592163,469.941681 236.054489,469.999725 244.956070,469.999725 
	C243.700989,467.772247 242.924347,466.393890 241.676102,465.008667 
z"/>
<path fill="#0BCEB2" opacity="1.000000" stroke="none" 
	d="
M180.988052,213.948090 
	C179.704788,210.844299 177.394882,208.009521 177.618927,205.391647 
	C177.797333,203.307251 180.777359,200.577637 183.062408,199.844238 
	C184.825638,199.278305 188.106567,200.780930 189.527115,202.402481 
	C191.931122,205.146606 193.398499,208.711258 195.343887,212.076675 
	C198.673172,210.316299 201.752655,208.584076 204.922668,207.037415 
	C209.154861,204.972473 212.156998,205.932693 214.333954,209.864822 
	C216.044159,212.953888 214.653488,216.779266 210.965256,218.957260 
	C208.323853,220.517059 205.637604,222.000885 202.506638,223.783142 
	C204.218491,226.955704 205.949265,229.849396 207.376312,232.885834 
	C209.249405,236.871307 208.250778,241.088776 204.830933,242.501434 
	C201.080353,244.050720 197.842834,242.943741 195.733490,239.233536 
	C194.048859,236.270325 192.308990,233.338516 190.670334,230.524460 
	C187.540085,232.106461 184.467926,233.895752 181.211777,235.238968 
	C177.873413,236.616119 174.421371,237.060669 172.086472,233.309845 
	C169.606232,229.325562 171.612213,226.275116 174.668686,223.980103 
	C177.370941,221.951065 180.526672,220.525940 183.661255,218.731674 
	C182.765808,217.212769 181.910385,215.761734 180.988052,213.948090 
z"/>
<path fill="#0BCEB2" opacity="1.000000" stroke="none" 
	d="
M183.955475,460.524963 
	C181.503632,462.295502 179.153732,464.638397 176.652603,464.812866 
	C169.209091,465.332001 161.705475,465.059387 154.226639,464.977600 
	C149.222076,464.922913 146.911301,462.467194 146.990524,457.730377 
	C147.072632,452.821503 150.119003,451.906677 154.231735,451.968933 
	C161.543564,452.079590 168.858307,451.992340 176.171799,452.002106 
	C182.985229,452.011230 183.962021,453.032410 183.955475,460.524963 
z"/>
<path fill="#0BCEB2" opacity="1.000000" stroke="none" 
	d="
M355.851288,464.999390 
	C349.376831,464.999298 343.380707,465.052429 337.385956,464.982697 
	C332.349548,464.924164 330.009033,462.804504 330.000519,458.512817 
	C329.990234,453.322266 331.463379,452.018250 337.451111,452.004059 
	C344.778961,451.986664 352.106842,451.991089 359.434723,452.002869 
	C364.722565,452.011383 367.058746,453.926300 366.998688,458.160248 
	C366.932953,462.795135 364.591644,464.885956 359.327911,464.996124 
	C358.329071,465.017029 357.329468,464.999298 355.851288,464.999390 
z"/>
<path fill="#2D4356" opacity="1.000000" stroke="none" 
	d="
M22.104004,439.370911 
	C18.870073,437.109711 17.872120,433.934753 19.631964,431.347931 
	C21.036215,429.283783 24.042467,427.884430 26.611176,427.159790 
	C29.064611,426.467773 31.882635,426.877197 34.520340,427.072815 
	C38.838276,427.393036 41.217762,430.089447 40.950512,434.266785 
	C40.690113,438.337067 38.228107,440.063904 34.337601,439.982666 
	C30.372269,439.899872 26.408464,439.743805 22.104004,439.370911 
z"/>
<path fill="#2D4356" opacity="1.000000" stroke="none" 
	d="
M489.425049,439.966064 
	C485.838440,439.985657 482.690918,439.977844 479.543518,439.992645 
	C475.602814,440.011169 473.206299,438.189453 473.065308,434.152161 
	C472.923340,430.087250 474.950745,427.479431 479.085388,427.100098 
	C482.043091,426.828766 485.044281,426.993378 488.025391,427.024414 
	C491.850647,427.064240 494.358154,428.882477 494.896851,432.750885 
	C495.430420,436.582581 493.801636,439.129578 489.425049,439.966064 
z"/>
<path fill="#2D4356" opacity="1.000000" stroke="none" 
	d="
M269.678955,106.230011 
	C274.398438,112.495262 273.967896,118.030167 268.794861,121.539200 
	C264.441681,124.492104 258.322510,123.262566 255.292496,118.826118 
	C253.122955,115.649521 253.504517,110.148125 256.082489,107.435799 
	C260.007782,103.305931 263.905579,102.875366 269.678955,106.230011 
M265.492371,116.735329 
	C265.710419,114.807671 265.928436,112.880013 266.146454,110.952354 
	C264.443298,110.855171 262.571442,110.295525 261.099518,110.832405 
	C260.201385,111.159988 259.245544,114.123146 259.467163,114.280502 
	C261.084900,115.428978 262.994720,116.166031 265.492371,116.735329 
z"/>
<path fill="#0BCDB2" opacity="1.000000" stroke="none" 
	d="
M131.906616,99.952301 
	C137.350693,98.389236 134.052582,102.204391 135.299652,103.700584 
	C132.930008,103.380730 131.230392,103.151314 128.796326,102.822762 
	C130.085464,104.933723 130.992371,106.418770 131.899506,107.901245 
	C128.391281,110.442879 128.391281,110.442879 125.531441,105.380493 
	C124.591232,106.933502 123.743843,108.333199 122.678993,110.092087 
	C121.379196,109.490936 120.183777,108.938057 118.761597,108.280304 
	C120.032593,106.589874 121.071373,105.208298 122.494911,103.314980 
	C120.323051,103.314980 118.816078,103.314980 117.160629,103.314980 
	C117.160629,102.154640 117.160629,100.858932 117.160629,99.209686 
	C118.907928,99.523849 120.546013,99.818375 123.219170,100.299011 
	C121.457298,98.168655 120.287537,96.754257 118.793831,94.948158 
	C119.967941,94.229950 121.086746,93.545570 122.475174,92.696259 
	C123.566368,94.433167 124.505135,95.927437 125.441055,97.425079 
	C127.355682,95.972771 127.405540,90.396622 132.178253,94.693253 
	C131.109695,96.126137 130.073593,97.515511 128.709686,99.344460 
	C129.845901,99.604332 130.678040,99.794662 131.906616,99.952301 
z"/>
<path fill="#0BCEB2" opacity="1.000000" stroke="none" 
	d="
M482.069977,170.076813 
	C484.636047,169.799591 486.984833,169.749313 485.586578,173.847702 
	C484.311035,173.936295 482.924225,174.032608 481.130341,174.157211 
	C482.094055,175.876801 482.867096,177.256195 483.754059,178.838837 
	C482.774933,179.436783 481.673096,180.109650 480.178589,181.022339 
	C479.226501,179.160522 478.324188,177.396027 477.376801,175.543350 
	C476.361969,177.397888 475.371124,179.208588 474.199982,181.348801 
	C473.010376,180.310791 472.054779,179.477005 471.118805,178.660339 
	C471.949890,177.250641 472.694366,175.987839 473.679596,174.316635 
	C472.195587,174.132172 470.857361,173.965836 469.404633,173.785263 
	C468.501617,171.243759 468.789612,169.590851 472.632874,170.317413 
	C473.610229,170.671402 474.061981,170.721207 474.513702,170.771027 
	C474.240936,170.290375 473.968201,169.809723 473.695465,169.329056 
	C472.844818,168.007111 471.994171,166.685165 471.091370,165.282181 
	C475.823822,161.910873 475.711273,166.963470 477.670593,168.612534 
	C478.375519,166.958771 479.058746,165.355927 479.922607,163.329254 
	C481.156677,163.807281 482.373322,164.278564 483.827057,164.841690 
	C483.014496,166.359543 482.368988,167.565430 481.305542,169.229111 
	C480.719879,170.026230 480.552094,170.365540 480.384338,170.704865 
	C480.946228,170.495529 481.508118,170.286179 482.069977,170.076813 
z"/>
<path fill="#2D4356" opacity="1.000000" stroke="none" 
	d="
M190.999237,151.151398 
	C192.884598,154.820084 192.102615,158.168396 189.267914,159.766159 
	C187.242355,160.907822 183.533234,160.949753 181.599182,159.783905 
	C179.981537,158.808792 179.160049,155.333115 179.288345,153.037521 
	C179.380798,151.383377 181.578445,148.568207 182.899551,148.531708 
	C185.525665,148.459152 188.194855,149.945786 190.999237,151.151398 
z"/>
<path fill="#2D4356" opacity="1.000000" stroke="none" 
	d="
M275.046448,169.816727 
	C274.999573,165.103439 277.221771,163.053894 281.451935,163.014130 
	C285.106079,162.979782 287.532043,164.595642 287.920105,168.346527 
	C288.307404,172.090332 286.757141,175.019470 282.909821,175.743378 
	C278.689117,176.537506 275.905670,174.581635 275.046448,169.816727 
z"/>
<path fill="#0BCDB2" opacity="1.000000" stroke="none" 
	d="
M203.025116,156.445190 
	C206.349152,151.752762 209.850677,150.626831 213.267441,153.138657 
	C216.281372,155.354340 217.357925,158.789581 214.851868,161.611282 
	C213.217606,163.451370 209.905426,164.972809 207.538437,164.732239 
	C203.370361,164.308624 202.591522,160.626358 203.025116,156.445190 
z"/>
<path fill="#0BCEB2" opacity="1.000000" stroke="none" 
	d="
M82.642952,232.160431 
	C86.980942,231.735397 90.935730,231.801178 91.898163,236.699402 
	C92.462982,239.574005 92.601997,243.193924 88.723663,243.896225 
	C86.163994,244.359741 82.110527,244.353607 80.959663,242.849091 
	C79.519630,240.966507 80.227638,237.326523 80.329559,234.456558 
	C80.356102,233.709122 81.576477,233.004074 82.642952,232.160431 
z"/>
<path fill="#0BCEB2" opacity="1.000000" stroke="none" 
	d="
M259.557312,171.975662 
	C255.526611,172.507156 252.152359,171.581116 251.254730,167.926376 
	C250.726486,165.775635 251.471985,162.044998 253.005707,160.973785 
	C254.947784,159.617401 258.662354,159.287994 260.920654,160.210052 
	C265.608215,162.124008 264.958893,167.933899 259.557312,171.975662 
z"/>
<path fill="#0BCEB2" opacity="1.000000" stroke="none" 
	d="
M119.830322,144.637604 
	C119.957787,148.080826 120.808029,151.331894 116.931000,153.054428 
	C113.546295,154.558212 110.997665,154.387589 108.512016,151.219376 
	C105.701195,147.636688 106.649597,144.173080 109.599365,142.351212 
	C111.603752,141.113251 115.142471,142.242371 117.970238,142.544891 
	C118.602280,142.612503 119.130501,143.650513 119.830322,144.637604 
z"/>
<path fill="#2D4356" opacity="1.000000" stroke="none" 
	d="
M191.174103,31.657145 
	C195.944153,33.562218 195.776077,37.352619 194.492203,40.538353 
	C193.088104,44.022358 189.672379,44.866837 186.106125,43.469215 
	C182.635880,42.109226 181.352676,39.223221 182.298508,35.851158 
	C183.480103,31.638641 186.642990,30.324350 191.174103,31.657145 
z"/>
<path fill="#2D4356" opacity="1.000000" stroke="none" 
	d="
M337.470398,53.359943 
	C342.959717,51.232559 347.410400,52.924694 347.968536,57.012802 
	C348.408447,60.235004 347.773560,63.463066 344.516083,64.360703 
	C342.294617,64.972855 338.507843,64.602646 337.335968,63.138714 
	C335.864746,61.300789 336.285339,57.901367 336.053192,55.161961 
	C336.011261,54.666988 336.758240,54.105160 337.470398,53.359943 
z"/>
<path fill="#2E4356" opacity="1.000000" stroke="none" 
	d="
M41.319595,198.466675 
	C44.173088,197.437897 46.844780,196.208603 49.487514,196.267990 
	C50.674934,196.294678 52.805557,198.943558 52.742180,200.321350 
	C52.626728,202.831421 51.867882,206.378220 50.123135,207.449417 
	C48.351627,208.537048 44.620960,207.903915 42.551327,206.673553 
	C39.796055,205.035614 39.213760,201.863617 41.319595,198.466675 
z"/>
<path fill="#0BCDB2" opacity="1.000000" stroke="none" 
	d="
M309.965332,178.745392 
	C308.598328,183.323120 305.541260,185.052597 301.550873,183.816269 
	C299.763336,183.262451 297.707703,181.207764 297.181305,179.419785 
	C295.907349,175.092606 298.448486,171.543839 302.413391,171.039047 
	C306.001190,170.582275 309.473724,173.931641 309.965332,178.745392 
z"/>
<path fill="#2D4356" opacity="1.000000" stroke="none" 
	d="
M416.030518,98.698380 
	C419.911499,101.802856 419.904266,105.357964 417.453979,108.619057 
	C415.322144,111.456413 411.624664,112.218765 409.127289,109.746941 
	C407.407410,108.044662 406.205597,104.396683 406.770874,102.113022 
	C407.846039,97.769577 411.806793,97.489143 416.030518,98.698380 
z"/>
<path fill="#2E4356" opacity="1.000000" stroke="none" 
	d="
M107.555939,163.364838 
	C108.975487,166.883667 109.019257,170.141129 106.037575,172.123032 
	C104.392075,173.216812 101.291603,173.928818 99.857414,173.088516 
	C97.945801,171.968445 96.344391,169.305237 95.893143,167.048279 
	C95.570404,165.434052 97.215469,161.924591 98.226906,161.828323 
	C101.203880,161.544952 104.302612,162.540680 107.555939,163.364838 
z"/>
<path fill="#0BCEB2" opacity="1.000000" stroke="none" 
	d="
M102.968887,189.341736 
	C103.319534,193.737411 101.895432,196.450058 97.615112,196.988663 
	C93.942162,197.450821 91.001358,196.322372 90.074142,192.468979 
	C89.138115,188.578964 91.086731,185.455505 94.564613,184.368744 
	C98.327911,183.192825 101.515175,184.898178 102.968887,189.341736 
z"/>
<path fill="#2D4356" opacity="1.000000" stroke="none" 
	d="
M85.119720,212.485565 
	C86.892914,208.247223 90.226440,206.546234 93.538353,208.683823 
	C95.591164,210.008743 97.066750,213.666824 97.120445,216.311752 
	C97.200211,220.241150 93.681023,221.288803 90.289703,220.890656 
	C85.593735,220.339371 84.686852,216.944733 85.119720,212.485565 
z"/>
<path fill="#0BCEB2" opacity="1.000000" stroke="none" 
	d="
M155.305099,147.361328 
	C157.946701,144.003571 161.396454,144.149185 163.954620,145.778900 
	C165.641617,146.853638 166.895004,150.030441 166.741119,152.149780 
	C166.603607,154.043732 164.607391,156.609558 162.807785,157.337479 
	C161.175201,157.997864 158.386581,157.072083 156.668243,155.970856 
	C153.565765,153.982574 153.894638,150.798553 155.305099,147.361328 
z"/>
<path fill="#2E4356" opacity="1.000000" stroke="none" 
	d="
M139.184296,141.661743 
	C143.814484,143.665466 143.798233,147.353287 142.416458,150.606750 
	C140.928970,154.109100 137.256775,155.282394 134.108231,153.244217 
	C132.209244,152.014954 130.162170,148.694290 130.533875,146.767044 
	C131.276459,142.916672 133.942383,139.877686 139.184296,141.661743 
z"/>
<path fill="#2D4356" opacity="1.000000" stroke="none" 
	d="
M228.080963,158.178619 
	C233.172745,154.920761 236.874619,155.302994 238.928879,158.954193 
	C241.094467,162.803238 239.548828,165.960449 236.206512,167.657562 
	C234.405502,168.572037 231.117676,168.464096 229.471344,167.364365 
	C226.430359,165.332977 226.274368,161.878845 228.080963,158.178619 
z"/>
<path fill="#0BCEB2" opacity="1.000000" stroke="none" 
	d="
M487.073730,44.080788 
	C489.690033,43.777996 491.987946,43.804478 490.615509,47.774010 
	C489.283112,47.774010 487.889557,47.774010 486.546783,47.774010 
	C486.701935,49.206818 486.875458,50.809055 487.048950,52.411301 
	C485.670288,51.842773 484.291656,51.274242 482.663788,50.602921 
	C481.765167,51.226360 480.282166,52.255219 478.799194,53.284081 
	C478.463226,52.968433 478.127258,52.652782 477.791290,52.337135 
	C478.373840,50.717369 478.956421,49.097603 479.642242,47.190727 
	C478.311066,47.467785 477.001282,47.740387 475.312561,48.091854 
	C475.312561,46.619194 475.312561,45.404778 475.312561,44.001564 
	C476.936005,44.096760 478.356750,44.180069 479.999481,44.276394 
	C479.649323,42.256794 475.067230,39.824100 480.524445,38.421879 
	C481.151672,39.478649 481.870087,40.689034 482.890411,42.408058 
	C483.872437,40.902481 484.697876,39.636959 485.520630,38.375572 
	C488.129211,39.138474 489.048828,40.483646 486.341003,43.233749 
	C485.721558,44.024559 485.552307,44.363888 485.383057,44.703213 
	C485.946625,44.495739 486.510162,44.288265 487.073730,44.080788 
z"/>
<path fill="#0BCEB2" opacity="1.000000" stroke="none" 
	d="
M23.046917,73.097397 
	C23.741812,71.912605 24.374884,71.067696 25.097542,70.308006 
	C25.562847,69.818871 26.139977,69.134087 26.701662,69.099457 
	C28.001913,69.019295 29.323235,69.280914 31.572271,69.491692 
	C31.714890,69.688980 32.849220,70.961945 33.594250,72.432190 
	C33.899227,73.034027 33.362659,74.062309 33.208927,74.896599 
	C30.223610,73.692398 34.739067,82.180817 29.356016,77.878227 
	C24.540777,80.297935 25.524837,74.379829 23.046917,73.097397 
z"/>
<path fill="#000000" opacity="1.000000" stroke="none" 
	d="
M384.330750,277.543549 
	C383.294556,285.893982 383.381012,294.283051 380.706390,301.672760 
	C371.482269,327.158417 348.929230,342.734406 321.998077,341.756897 
	C297.757294,340.877075 277.171112,326.661987 268.187714,303.953064 
	C253.249435,266.190735 277.447937,226.310898 317.576355,221.302170 
	C335.492462,219.065918 351.512634,224.889832 365.005188,237.429916 
	C374.599976,246.347382 380.688812,257.017578 383.344299,269.729462 
	C383.849426,272.147552 383.917816,274.656830 384.330750,277.543549 
M304.841766,269.947327 
	C309.107513,269.758698 311.602203,268.310059 312.187653,263.326904 
	C313.128845,255.316315 319.150635,250.418655 325.225250,251.648102 
	C331.678192,252.954117 336.038910,257.576813 335.987579,263.056976 
	C335.934265,268.751862 331.452759,274.259399 324.793671,274.739594 
	C319.535095,275.118744 317.660797,278.069000 317.253387,281.987915 
	C316.802856,286.321716 317.554474,290.806274 318.014587,295.200897 
	C318.387604,298.763611 320.738068,300.102875 324.178314,300.018799 
	C327.532959,299.936829 329.856903,298.651642 330.388641,295.120544 
	C330.778717,292.530212 331.037170,289.920044 331.350922,287.346375 
	C332.640076,286.670807 333.911987,285.906830 335.259125,285.313660 
	C346.419769,280.399902 350.745453,267.790039 348.696381,258.814056 
	C345.354889,244.176407 336.089844,238.055832 323.384033,238.208344 
	C312.126556,238.343491 302.668884,244.624634 299.976654,257.209839 
	C298.312195,264.990692 298.697266,266.373474 304.841766,269.947327 
M331.002716,316.291962 
	C331.002686,315.299438 331.030029,314.306030 330.997864,313.314545 
	C330.850159,308.758728 328.024261,305.072418 324.319031,305.058167 
	C319.993561,305.041534 318.022827,307.961121 317.224274,311.763123 
	C316.890381,313.352875 316.918884,315.058990 317.032227,316.694916 
	C317.369568,321.563202 320.095612,325.162109 323.777557,324.755524 
	C327.964417,324.293152 331.093323,322.054291 331.002716,316.291962 
z"/>
<path fill="#000000" opacity="1.000000" stroke="none" 
	d="
M398.531311,344.129822 
	C399.911652,345.122589 401.148834,345.713837 402.066803,346.626282 
	C413.521545,358.011993 425.025146,369.351349 436.307983,380.905914 
	C441.536591,386.260468 439.341705,394.695831 432.286591,396.144867 
	C429.982880,396.618011 426.479187,395.660614 424.795898,394.038177 
	C412.331177,382.024170 400.158997,369.705353 387.963196,357.414520 
	C384.966248,354.394257 385.233154,350.768982 387.256805,347.423401 
	C389.800568,343.217957 393.496948,341.706635 398.531311,344.129822 
z"/>
<path fill="#000000" opacity="1.000000" stroke="none" 
	d="
M265.152344,116.884171 
	C262.994720,116.166031 261.084900,115.428978 259.467163,114.280502 
	C259.245544,114.123146 260.201385,111.159988 261.099518,110.832405 
	C262.571442,110.295525 264.443298,110.855171 266.146454,110.952354 
	C265.928436,112.880013 265.710419,114.807671 265.152344,116.884171 
z"/>
<path fill="#000000" opacity="1.000000" stroke="none" 
	d="
M481.884155,169.882202 
	C481.508118,170.286179 480.946228,170.495529 480.384338,170.704865 
	C480.552094,170.365540 480.719879,170.026230 481.104858,169.494797 
	C481.447479,169.430969 481.572906,169.559265 481.884155,169.882202 
z"/>
<path fill="#000000" opacity="1.000000" stroke="none" 
	d="
M473.502747,169.516449 
	C473.968201,169.809723 474.240936,170.290375 474.513702,170.771027 
	C474.061981,170.721207 473.610229,170.671402 473.043854,170.352432 
	C473.056152,169.956787 473.183105,169.830322 473.502747,169.516449 
z"/>
<path fill="#000000" opacity="1.000000" stroke="none" 
	d="
M486.888641,43.885689 
	C486.510162,44.288265 485.946625,44.495739 485.383057,44.703213 
	C485.552307,44.363888 485.721558,44.024559 486.110046,43.494766 
	C486.454041,43.433060 486.578796,43.561821 486.888641,43.885689 
z"/>
<path fill="#0BCEB2" opacity="1.000000" stroke="none" 
	d="
M304.479919,269.786957 
	C298.697266,266.373474 298.312195,264.990692 299.976654,257.209839 
	C302.668884,244.624634 312.126556,238.343491 323.384033,238.208344 
	C336.089844,238.055832 345.354889,244.176407 348.696381,258.814056 
	C350.745453,267.790039 346.419769,280.399902 335.259125,285.313660 
	C333.911987,285.906830 332.640076,286.670807 331.350922,287.346375 
	C331.037170,289.920044 330.778717,292.530212 330.388641,295.120544 
	C329.856903,298.651642 327.532959,299.936829 324.178314,300.018799 
	C320.738068,300.102875 318.387604,298.763611 318.014587,295.200897 
	C317.554474,290.806274 316.802856,286.321716 317.253387,281.987915 
	C317.660797,278.069000 319.535095,275.118744 324.793671,274.739594 
	C331.452759,274.259399 335.934265,268.751862 335.987579,263.056976 
	C336.038910,257.576813 331.678192,252.954117 325.225250,251.648102 
	C319.150635,250.418655 313.128845,255.316315 312.187653,263.326904 
	C311.602203,268.310059 309.107513,269.758698 304.479919,269.786957 
z"/>
<path fill="#0BCDB2" opacity="1.000000" stroke="none" 
	d="
M331.002258,316.720947 
	C331.093323,322.054291 327.964417,324.293152 323.777557,324.755524 
	C320.095612,325.162109 317.369568,321.563202 317.032227,316.694916 
	C316.918884,315.058990 316.890381,313.352875 317.224274,311.763123 
	C318.022827,307.961121 319.993561,305.041534 324.319031,305.058167 
	C328.024261,305.072418 330.850159,308.758728 330.997864,313.314545 
	C331.030029,314.306030 331.002686,315.299438 331.002258,316.720947 
z"/>
</svg>