<?xml version="1.0" standalone="no"?>
<!DOCTYPE svg PUBLIC "-//W3C//DTD SVG 20010904//EN"
 "http://www.w3.org/TR/2001/REC-SVG-20010904/DTD/svg10.dtd">
<svg version="1.0" xmlns="http://www.w3.org/2000/svg"
 width="512.000000pt" height="512.000000pt" viewBox="0 0 512.000000 512.000000"
 preserveAspectRatio="xMidYMid meet">

<g transform="translate(0.000000,512.000000) scale(0.100000,-0.100000)"
fill="#000000" stroke="none">
<path d="M1836 4794 c-19 -18 -21 -65 -4 -82 7 -7 26 -12 43 -12 39 0 55 16
55 55 0 17 -5 36 -12 43 -17 17 -64 15 -82 -4z m74 -37 c0 -17 -20 -37 -37
-37 -7 0 -17 9 -23 19 -14 28 13 55 41 41 10 -6 19 -16 19 -23z"/>
<path d="M3366 4584 c-19 -18 -21 -65 -4 -82 7 -7 26 -12 43 -12 17 0 36 5 43
12 7 7 12 26 12 43 0 17 -5 36 -12 43 -17 17 -64 15 -82 -4z m74 -37 c0 -7 -5
-18 -12 -25 -18 -18 -36 -15 -48 7 -14 28 13 55 41 41 10 -6 19 -16 19 -23z"/>
<path d="M4070 4121 c-24 -46 0 -91 49 -91 35 0 51 17 51 55 0 40 -16 55 -57
55 -22 0 -36 -6 -43 -19z m68 -13 c18 -18 15 -36 -7 -48 -15 -7 -23 -6 -35 6
-12 12 -13 20 -6 35 12 22 30 25 48 7z"/>
<path d="M2560 4055 c-54 -57 -13 -147 66 -147 49 0 84 37 84 88 0 76 -98 115
-150 59z m102 -41 c14 -31 1 -57 -31 -62 -28 -4 -51 14 -51 42 0 50 62 65 82
20z"/>
<path d="M1317 3692 c-10 -10 -17 -28 -17 -40 0 -55 81 -71 109 -21 13 24 13
29 -2 53 -21 31 -66 35 -90 8z"/>
<path d="M1794 3615 c-22 -34 -12 -69 26 -85 41 -17 80 7 80 50 0 59 -74 84
-106 35z"/>
<path d="M2281 3543 c-33 -40 -7 -93 44 -93 51 0 74 75 33 104 -32 23 -54 20
-77 -11z"/>
<path d="M970 3500 c-11 -11 -20 -29 -20 -40 0 -11 9 -29 20 -40 11 -11 29
-20 40 -20 11 0 29 9 40 20 11 11 20 29 20 40 0 11 -9 29 -20 40 -11 11 -29
20 -40 20 -11 0 -29 -9 -40 -20z"/>
<path d="M2772 3484 c-43 -30 -20 -104 33 -104 53 0 76 74 33 104 -12 9 -27
16 -33 16 -6 0 -21 -7 -33 -16z"/>
<path d="M420 3150 c-11 -11 -20 -29 -20 -40 0 -26 34 -60 60 -60 26 0 60 34
60 60 0 11 -9 29 -20 40 -11 11 -29 20 -40 20 -11 0 -29 -9 -40 -20z m65 -40
c0 -18 -6 -26 -23 -28 -13 -2 -25 3 -28 12 -10 26 4 48 28 44 17 -2 23 -10 23
-28z"/>
<path d="M854 3015 c-14 -21 -15 -31 -5 -51 26 -59 110 -42 111 22 0 52 -77
73 -106 29z"/>
<path d="M3144 3029 c-83 -10 -137 -26 -212 -60 -184 -83 -320 -235 -389 -434
-24 -72 -27 -94 -28 -220 0 -108 4 -153 18 -199 98 -318 373 -526 694 -526
158 0 308 47 428 134 49 35 50 36 69 16 17 -17 18 -23 8 -58 -15 -49 -15 -85
-1 -137 9 -33 50 -79 222 -254 134 -135 227 -220 252 -232 150 -70 327 61 301
223 -12 72 -46 115 -253 320 -186 183 -203 197 -256 213 -55 16 -110 14 -148
-6 -11 -6 -23 -1 -38 14 l-21 23 26 35 c68 91 125 244 139 375 8 78 -10 208
-42 298 -92 259 -326 444 -601 476 -48 5 -91 9 -97 9 -5 -1 -38 -5 -71 -10z
m234 -120 c171 -41 329 -173 406 -340 46 -99 60 -179 53 -292 -9 -158 -72
-291 -187 -400 -119 -113 -256 -167 -420 -167 -174 0 -305 55 -430 180 -191
190 -234 475 -108 713 41 77 148 191 220 235 138 83 308 109 466 71z m600
-1213 c32 -18 385 -372 401 -403 31 -61 -15 -133 -86 -133 -37 0 -48 9 -246
208 -221 222 -227 230 -193 291 26 47 77 62 124 37z"/>
<path d="M705 2516 c-37 -16 -70 -52 -84 -89 -8 -19 -11 -263 -11 -751 0 -612
2 -730 15 -772 8 -27 15 -50 15 -51 0 -2 -33 -3 -73 -3 -59 0 -77 -4 -90 -18
-23 -25 -21 -58 3 -82 20 -20 33 -20 2080 -20 2047 0 2060 0 2080 20 25 25 26
62 2 83 -17 16 -88 17 -821 17 l-803 0 7 23 c20 66 24 124 25 354 l0 252 -54
15 c-30 9 -57 16 -60 16 -3 0 -6 -125 -6 -278 0 -311 -3 -328 -71 -364 -32
-17 -84 -18 -1027 -18 -841 0 -998 2 -1027 14 -46 20 -75 69 -75 129 l0 47
803 0 c652 0 807 3 821 13 26 19 24 67 -4 89 -21 17 -65 18 -821 18 l-799 0 0
613 c0 463 3 616 12 625 9 9 79 12 254 12 l242 0 73 -77 c41 -42 86 -90 101
-105 15 -16 37 -28 51 -28 25 0 57 27 57 48 0 9 108 12 430 12 l430 0 0 60 0
60 -473 0 -473 0 -59 61 c-33 34 -74 67 -92 75 -45 20 -534 19 -578 0z"/>
<path d="M14 825 c-21 -32 -12 -68 21 -83 61 -28 116 47 67 91 -28 25 -69 21
-88 -8z"/>
<path d="M206 837 c-26 -19 -24 -67 4 -89 29 -23 126 -25 158 -2 26 18 30 65
6 88 -20 20 -142 22 -168 3z"/>
<path d="M4746 834 c-24 -23 -20 -70 6 -88 32 -23 129 -21 158 2 28 22 30 70
4 89 -26 19 -148 17 -168 -3z"/>
<path d="M5017 832 c-45 -49 8 -118 68 -90 33 15 42 51 21 83 -20 30 -65 34
-89 7z"/>
</g>
</svg>
