<?xml version="1.0" standalone="no"?>
<!DOCTYPE svg PUBLIC "-//W3C//DTD SVG 20010904//EN"
 "http://www.w3.org/TR/2001/REC-SVG-20010904/DTD/svg10.dtd">
<svg version="1.0" xmlns="http://www.w3.org/2000/svg"
 width="720.000000pt" height="751.000000pt" viewBox="0 0 720.000000 751.000000"
 preserveAspectRatio="xMidYMid meet">

<g transform="translate(0.000000,751.000000) scale(0.100000,-0.100000)"
fill="#000000" stroke="none">
<path d="M0 3755 l0 -3755 3600 0 3600 0 0 3755 0 3755 -3600 0 -3600 0 0
-3755z m4045 3540 c33 -9 95 -33 137 -55 l78 -40 132 2 c144 2 153 1 363 -72
109 -37 385 -155 499 -212 84 -42 241 -157 291 -213 27 -30 139 -106 214 -146
98 -51 192 -136 220 -200 11 -24 17 -47 15 -51 -3 -4 -2 -8 3 -8 4 0 19 -19
33 -41 17 -28 45 -52 90 -77 100 -56 153 -117 223 -257 11 -22 46 -75 79 -117
32 -43 56 -78 52 -78 -3 0 -2 -6 4 -12 6 -7 31 -53 57 -102 44 -84 98 -169
158 -247 15 -20 27 -41 27 -47 0 -6 4 -12 8 -14 15 -6 61 -127 76 -200 18 -86
32 -129 76 -223 58 -124 72 -196 85 -435 6 -115 14 -180 25 -200 23 -44 50
-176 50 -247 0 -142 -27 -481 -74 -916 -13 -119 -20 -150 -52 -220 -49 -111
-74 -184 -74 -219 0 -64 -83 -254 -130 -298 -48 -45 -81 -108 -119 -226 -50
-158 -93 -234 -190 -336 -40 -42 -81 -87 -90 -98 -69 -91 -120 -149 -211 -241
-58 -59 -112 -115 -120 -126 -8 -10 -34 -44 -58 -75 -51 -66 -80 -90 -182
-146 -66 -36 -295 -218 -391 -310 -84 -81 -244 -170 -364 -202 -44 -11 -132
-45 -195 -75 -148 -69 -243 -99 -411 -129 -74 -14 -155 -30 -180 -36 -24 -6
-84 -14 -134 -19 -75 -7 -107 -5 -205 14 -135 27 -264 25 -319 -4 -23 -13
-107 -25 -166 -24 -59 1 -109 20 -185 70 -30 20 -72 48 -92 61 -26 17 -55 25
-92 27 -30 2 -58 5 -64 8 -5 4 -54 1 -108 -6 -145 -19 -283 -7 -369 32 -37 17
-93 48 -124 70 -31 21 -68 42 -81 46 -14 4 -29 11 -35 15 -15 11 -135 48 -180
55 -54 9 -161 42 -204 65 -39 19 -124 90 -155 128 -21 27 -107 90 -151 112
-16 8 -70 54 -120 102 -49 48 -93 88 -98 88 -4 0 -47 25 -95 56 -103 67 -217
179 -294 289 -31 44 -90 112 -130 152 -41 40 -86 87 -100 105 -29 38 -63 132
-73 203 -9 62 -18 80 -66 130 -81 85 -101 113 -149 210 -71 145 -77 161 -106
281 -14 60 -50 186 -80 279 -30 94 -59 184 -64 200 -42 141 -58 841 -26 1123
14 119 61 343 85 404 5 13 21 68 36 123 40 146 81 277 122 390 35 97 44 120
95 235 14 30 31 78 38 105 37 142 195 373 363 531 71 66 157 170 157 189 0 7
28 41 85 103 56 61 147 131 276 212 48 29 105 69 127 89 186 166 183 163 342
248 52 28 111 59 130 70 66 36 225 101 335 136 61 20 160 56 220 80 188 75
292 94 600 108 456 21 549 27 620 47 89 24 203 27 280 7z"/>
<path d="M3510 7153 c-273 -14 -467 -42 -708 -102 -782 -196 -1463 -656 -1927
-1300 -346 -481 -557 -1034 -620 -1626 -17 -162 -20 -491 -5 -650 24 -259 86
-547 166 -773 117 -330 240 -573 412 -813 344 -481 712 -795 1267 -1080 189
-98 345 -153 680 -243 230 -62 333 -74 765 -92 225 -9 547 32 861 111 402 100
795 283 1139 528 604 432 1054 1063 1270 1780 45 149 100 416 122 587 17 140
17 611 0 750 -60 475 -218 932 -469 1358 -226 385 -633 795 -1045 1051 -400
250 -880 427 -1305 481 -132 17 -507 44 -538 38 -5 -1 -35 -3 -65 -5z m385
-123 c694 -60 1324 -325 1847 -777 608 -526 988 -1259 1079 -2083 18 -159 15
-514 -4 -675 -101 -819 -478 -1540 -1087 -2079 -502 -443 -1119 -720 -1790
-803 -175 -21 -581 -24 -735 -4 -556 70 -1015 239 -1454 533 -237 160 -453
353 -647 580 -539 630 -810 1473 -744 2314 65 818 457 1612 1066 2155 407 364
866 611 1381 744 205 53 320 72 603 98 83 8 375 6 485 -3z"/>
<path d="M2940 6699 c-19 -12 -51 -39 -71 -60 -39 -42 -37 -42 -117 -7 -53 23
-74 18 -95 -26 -11 -24 -27 -38 -51 -46 -20 -6 -36 -15 -37 -18 -5 -45 -3 -58
19 -83 23 -28 24 -34 17 -107 -8 -89 2 -122 47 -169 28 -29 30 -36 23 -70 -9
-43 -8 -57 1 -163 5 -58 12 -81 30 -103 27 -32 28 -40 14 -68 -8 -15 -4 -31
18 -74 27 -50 29 -60 20 -103 -12 -56 -28 -78 -28 -39 0 15 -7 44 -15 64 -9
20 -15 60 -14 88 2 40 -4 62 -24 96 -24 41 -27 57 -31 178 -4 129 -5 133 -37
184 -19 29 -36 54 -39 57 -12 10 -38 76 -51 128 -7 28 -17 52 -22 52 -15 0
-148 -64 -257 -124 -563 -310 -1004 -805 -1253 -1406 -42 -102 -120 -348 -142
-445 -60 -273 -80 -628 -51 -897 61 -574 284 -1091 657 -1523 432 -501 1021
-821 1714 -932 139 -22 607 -25 755 -5 327 46 656 151 947 302 438 227 838
594 1092 1002 371 593 510 1281 395 1958 -94 557 -343 1050 -734 1454 -414
427 -918 695 -1515 805 -162 30 -295 41 -500 41 -188 0 -215 -3 -215 -25 0
-16 31 -78 44 -87 5 -4 12 -36 14 -72 4 -55 2 -66 -11 -66 -23 0 -30 17 -38
83 -8 67 -30 97 -71 97 -23 0 -28 4 -28 24 0 32 -17 44 -62 44 -23 0 -50 10
-74 26 -21 14 -50 26 -64 26 -14 0 -34 7 -44 15 -28 21 -75 18 -116 -6z m115
-19 c22 -11 48 -20 59 -20 11 0 30 -9 42 -21 19 -18 40 -23 116 -28 4 -1 8
-13 10 -28 2 -22 10 -29 38 -34 45 -9 60 -32 60 -91 0 -33 7 -58 20 -76 18
-25 18 -30 6 -66 -10 -28 -11 -49 -4 -74 12 -42 4 -87 -18 -109 -10 -10 -14
-27 -11 -46 3 -21 -3 -36 -20 -53 -15 -16 -23 -35 -23 -59 0 -20 -7 -49 -15
-64 -12 -23 -22 -29 -62 -34 -26 -3 -49 -11 -51 -17 -3 -7 -18 -26 -33 -43
-16 -16 -29 -33 -29 -37 0 -11 33 -37 57 -44 13 -4 27 -21 35 -42 7 -20 19
-34 29 -34 9 0 24 -12 34 -26 12 -19 22 -24 39 -20 29 7 67 -32 95 -96 11 -26
29 -53 41 -60 11 -7 25 -30 31 -50 5 -21 28 -57 50 -80 22 -24 55 -59 74 -78
18 -20 38 -56 45 -80 6 -24 22 -52 35 -62 26 -20 40 -58 49 -130 6 -53 -8 -66
-19 -17 -4 17 -20 42 -35 55 -22 20 -29 38 -35 81 -5 44 -13 61 -33 77 -14 12
-47 41 -72 66 -25 25 -62 57 -82 70 -21 14 -43 37 -49 52 -6 15 -20 35 -30 44
-17 15 -24 16 -39 6 -30 -19 -40 -15 -40 16 0 46 -28 92 -55 92 -12 0 -35 6
-51 14 -19 11 -33 12 -46 5 -11 -6 -18 -6 -18 0 0 5 -21 32 -46 60 -37 41 -52
51 -78 51 -20 0 -35 7 -44 20 -31 50 -87 -1 -63 -58 8 -18 9 -37 3 -52 -6 -17
-4 -38 6 -67 14 -38 14 -46 -3 -102 -18 -60 -18 -60 5 -113 13 -30 22 -71 22
-96 -1 -24 5 -62 12 -84 12 -33 12 -43 0 -66 -8 -15 -14 -43 -14 -63 0 -46
-24 -70 -39 -40 -6 11 -14 42 -18 68 -3 26 -10 51 -15 54 -10 7 -11 31 -3 74
5 24 -3 45 -45 110 -41 65 -50 86 -46 110 4 17 9 58 12 93 6 56 5 65 -13 77
-19 13 -19 17 -5 74 14 59 14 61 -11 110 -19 36 -25 58 -20 83 5 35 -18 98
-36 98 -5 0 -12 35 -15 78 -8 105 -8 101 0 155 6 45 4 51 -24 80 -45 46 -54
80 -46 157 9 78 8 89 -17 116 -29 31 -24 60 11 73 17 5 39 25 51 45 23 39 36
43 77 22 15 -7 42 -17 59 -21 29 -6 38 -2 86 44 48 46 85 69 112 70 6 1 28 -8
50 -19z m588 -248 c9 -8 17 -23 17 -34 0 -10 5 -18 11 -18 5 0 8 -4 4 -9 -3
-5 0 -13 6 -17 6 -3 17 -22 25 -40 13 -32 12 -39 -15 -109 -16 -41 -26 -75
-22 -75 19 0 27 -55 24 -165 -1 -66 -3 -124 -3 -130 0 -5 -7 -2 -16 7 -14 14
-15 25 -7 68 6 29 7 67 2 87 -4 20 -3 46 1 59 10 25 4 54 -10 54 -5 0 -15 3
-23 6 -8 3 -24 -4 -35 -16 -14 -15 -26 -19 -45 -15 -33 9 -40 -6 -27 -54 10
-39 5 -75 -10 -66 -12 7 -23 81 -15 104 3 11 15 23 26 26 10 4 17 11 14 16 -3
5 1 6 9 3 29 -11 17 30 -19 66 -37 36 -46 81 -26 133 5 13 12 38 14 56 6 36
31 69 62 81 21 8 30 5 58 -18z m777 -9 c28 -23 31 -31 26 -62 -8 -47 -8 -41 1
-156 l8 -100 38 -3 c33 -3 42 2 75 38 20 23 51 49 67 57 17 9 47 31 68 49 42
39 65 42 98 15 l24 -19 -25 5 c-29 5 -125 -53 -180 -110 -24 -25 -44 -37 -63
-37 -21 0 -33 -8 -49 -35 -19 -33 -90 -80 -102 -67 -12 11 -5 68 10 90 13 18
14 29 5 50 -14 35 -17 131 -7 208 8 58 7 62 -14 69 -14 4 -28 1 -39 -9 -10 -9
-30 -16 -44 -16 -31 0 -30 7 -32 -155 -1 -98 -6 -130 -23 -173 -12 -29 -22
-65 -22 -80 0 -16 -7 -50 -16 -76 -15 -43 -15 -49 -1 -63 13 -14 18 -12 48 16
17 17 33 30 35 28 5 -4 -32 -131 -44 -154 -10 -19 -10 -28 3 -52 21 -41 19
-64 -11 -162 -29 -95 -28 -164 2 -186 10 -7 12 -13 6 -13 -7 0 -22 10 -33 21
-19 19 -21 29 -16 83 8 72 13 102 23 118 4 7 3 8 -4 4 -7 -4 -12 -1 -12 6 0 7
-8 1 -17 -13 -17 -27 -68 -49 -116 -49 -57 0 -97 -27 -127 -85 -23 -44 -69
-46 -101 -5 -13 17 -32 41 -41 52 -10 12 -18 24 -18 28 0 4 -13 24 -30 45 -16
20 -32 52 -36 71 -7 39 -24 56 -24 25 0 -12 -3 -21 -8 -21 -9 0 -32 -94 -32
-130 0 -43 -12 -74 -21 -58 -14 22 -10 59 15 129 13 38 20 73 16 85 -4 10 -10
38 -14 61 -5 35 -2 46 19 70 l24 28 -6 -37 c-14 -91 38 -5 57 93 6 31 26 81
43 110 32 52 127 158 144 160 4 1 46 2 93 3 94 3 127 -5 150 -35 10 -12 22
-18 32 -14 13 5 17 28 22 123 3 64 6 128 6 142 0 46 21 78 63 99 55 27 69 26
107 -6z m-30 -90 c-8 -35 -8 -78 -2 -139 7 -57 7 -95 1 -107 -15 -27 -7 -108
11 -120 12 -7 27 -2 55 17 52 34 57 38 75 65 8 12 27 24 42 25 15 2 38 16 53
34 24 29 137 112 152 112 4 0 -7 -15 -24 -32 -16 -18 -38 -46 -47 -63 -10 -17
-35 -37 -56 -47 -32 -13 -44 -27 -65 -72 -14 -30 -25 -58 -25 -63 0 -8 -68
-45 -102 -56 -27 -9 -33 -63 -10 -100 11 -17 35 -56 52 -85 17 -29 38 -56 48
-59 26 -9 62 -45 62 -62 0 -8 9 -25 21 -37 23 -25 38 -79 39 -138 0 -22 11
-77 25 -123 23 -75 24 -85 10 -99 -8 -8 -15 -25 -15 -37 -1 -18 -3 -17 -14 9
-8 17 -17 50 -21 73 -4 24 -16 52 -26 62 -10 10 -25 37 -31 59 -7 23 -25 54
-39 70 -18 19 -28 45 -33 79 -4 31 -13 55 -24 63 -10 7 -27 31 -38 52 -26 55
-51 68 -71 39 -9 -13 -21 -23 -28 -23 -7 0 -16 -28 -23 -76 -7 -52 -18 -87
-36 -113 -14 -20 -26 -47 -26 -58 0 -31 -18 -38 -25 -11 -6 24 2 69 31 181 15
59 15 76 5 116 -10 40 -10 55 2 87 8 21 21 61 28 87 10 41 10 50 -2 58 -21 13
-26 11 -53 -18 -31 -33 -43 -25 -22 16 9 16 16 44 16 60 0 17 12 65 26 108 27
81 31 134 19 222 -8 58 3 81 40 81 13 0 26 8 29 17 4 11 10 13 17 6 6 -6 6
-27 -1 -60z m-942 -19 c-3 -3 0 -27 7 -54 14 -52 5 -132 -21 -181 -7 -15 -16
-42 -18 -61 -11 -87 -27 -123 -85 -193 -44 -53 -49 -72 -28 -108 14 -26 46
-57 59 -57 20 0 6 -16 -17 -18 -15 -1 -28 5 -35 17 -5 11 -19 22 -29 26 -11 3
-29 21 -40 40 -13 22 -28 35 -41 35 -29 0 -35 24 -13 49 10 11 24 27 31 35 7
9 27 16 45 16 18 0 42 7 54 15 23 16 43 70 43 117 0 18 8 31 21 39 17 9 20 17
16 45 -3 18 -1 36 4 39 5 4 16 20 25 37 14 27 15 39 4 84 -11 43 -11 56 0 69
7 8 15 15 18 15 3 0 3 -3 0 -6z m1352 -149 c-22 -36 -69 -79 -78 -71 -8 8 39
76 64 93 13 8 25 23 25 32 1 13 2 13 6 -2 2 -9 -5 -33 -17 -52z m-1156 -201
c-4 -119 -3 -127 18 -144 l21 -17 -23 -33 c-22 -32 -23 -36 -12 -104 11 -64
10 -76 -8 -124 -11 -29 -20 -71 -20 -95 -1 -35 -2 -39 -11 -24 -7 12 -8 40 -4
73 5 39 3 60 -7 71 -9 11 -12 46 -11 117 2 88 -1 104 -18 122 -18 19 -18 23
-4 64 17 47 19 87 6 92 -4 2 -10 25 -13 51 -5 42 -3 47 12 42 9 -3 24 3 35 15
38 42 43 27 39 -106z m1032 74 c-8 -13 -30 -49 -48 -81 -17 -32 -51 -75 -75
-94 -24 -19 -43 -43 -43 -52 0 -18 66 -124 81 -129 47 -17 92 -86 103 -157 l6
-40 -16 30 c-9 17 -25 38 -35 48 -11 10 -19 26 -19 36 0 20 -35 56 -65 65 -25
8 -105 136 -105 168 0 24 10 32 93 70 16 7 30 23 33 38 8 36 37 93 54 107 8 7
23 13 34 13 17 0 17 -1 2 -22z m-1116 -112 c-1 -6 -7 -22 -15 -36 -14 -25 -14
-24 -15 17 0 34 3 41 15 37 8 -4 15 -11 15 -18z m-2 -148 c8 -8 10 -38 5 -99
-5 -69 -3 -93 9 -111 11 -16 14 -41 10 -84 -5 -78 9 -108 46 -100 l27 6 -22
-19 c-24 -20 -30 -41 -12 -41 6 0 8 -7 5 -16 -3 -8 -2 -13 3 -10 5 3 31 -19
59 -49 43 -46 55 -70 86 -165 36 -109 40 -148 21 -182 -15 -25 -59 -33 -79
-13 -9 9 -16 13 -16 9 0 -16 -29 32 -30 49 0 9 -4 17 -10 17 -5 0 -6 7 -3 17
4 11 3 14 -5 9 -8 -5 -10 -2 -6 8 4 10 1 16 -7 16 -7 0 -10 3 -7 6 4 3 -5 18
-18 32 -13 15 -39 49 -57 77 -20 30 -50 58 -76 72 -24 12 -54 35 -67 50 l-24
28 26 -78 c59 -176 214 -458 369 -672 54 -76 125 -206 125 -231 0 -6 6 -17 14
-23 12 -10 18 -7 29 16 21 40 191 204 337 324 290 241 414 389 577 693 86 160
88 162 103 95 70 -321 46 -623 -85 -1085 -72 -251 -89 -344 -80 -429 l7 -61
187 -18 c154 -14 203 -15 272 -6 111 15 231 41 360 79 158 46 331 81 399 81
33 0 60 -3 60 -7 0 -5 -56 -44 -123 -88 -90 -59 -152 -110 -237 -195 -99 -99
-124 -131 -180 -230 -77 -138 -103 -174 -251 -352 -63 -76 -125 -158 -138
-183 l-24 -46 20 -27 c73 -100 501 -266 707 -274 25 0 46 -5 46 -9 0 -4 -21
-14 -47 -23 -49 -17 -159 -81 -293 -170 -177 -117 -389 -306 -445 -395 -24
-39 -26 -46 -14 -69 8 -13 42 -49 76 -79 35 -31 63 -59 63 -64 0 -10 -158
-129 -171 -129 -4 0 -10 12 -14 27 -10 40 -73 92 -133 109 -51 15 -52 16 -48
47 12 71 29 454 29 632 1 146 -4 223 -21 330 -73 468 -245 853 -454 1012 -125
95 -336 184 -523 219 -125 23 -395 15 -510 -15 -127 -34 -174 -51 -265 -96
-163 -80 -280 -172 -320 -252 -8 -15 -28 -48 -46 -73 -102 -145 -206 -375
-273 -606 -78 -268 -106 -501 -99 -830 l5 -215 -52 -29 c-63 -36 -148 -124
-169 -175 -9 -21 -16 -66 -16 -101 0 -35 -3 -64 -6 -64 -3 0 -47 28 -97 61
-127 85 -306 232 -406 333 l-85 85 97 92 c105 100 181 160 239 190 56 29 57
49 4 118 -25 33 -65 76 -88 96 -88 75 -325 176 -591 251 -29 9 -19 18 46 43
34 13 105 41 157 62 52 21 194 76 314 124 218 85 356 150 356 166 0 4 -23 61
-51 126 -86 196 -115 289 -164 517 -59 277 -90 366 -181 517 -40 67 -41 71
-10 60 13 -5 88 -26 167 -46 199 -50 249 -67 449 -155 216 -95 326 -129 446
-137 105 -7 144 0 144 24 0 9 18 62 39 117 54 138 93 299 141 582 43 252 72
377 121 536 l31 98 -24 29 c-21 27 -52 45 -70 42 -9 -1 -47 30 -99 82 -59 59
-64 54 -73 -83 -3 -41 -8 -98 -12 -127 -6 -45 -2 -61 24 -115 20 -43 29 -75
27 -100 -8 -92 -37 -56 -40 48 -1 41 -9 76 -23 103 l-22 42 22 64 c22 62 22
65 5 95 -13 21 -16 40 -11 65 4 21 1 48 -6 65 -18 43 -3 57 29 27 15 -15 41
-27 61 -29 27 -2 41 -12 67 -46 18 -24 37 -51 42 -60 8 -14 13 -15 31 -4 17
10 24 10 41 -2 11 -7 28 -12 38 -9 23 6 51 -31 51 -68 0 -15 3 -34 6 -43 7
-18 39 -22 49 -6 12 20 32 9 52 -28 12 -20 42 -50 68 -66 26 -17 53 -42 61
-57 7 -15 32 -38 54 -50 41 -23 60 -61 60 -121 0 -16 11 -37 30 -55 17 -15 30
-38 30 -50 0 -29 35 -64 55 -57 35 14 4 175 -44 230 -17 19 -31 46 -31 60 0
16 -13 39 -36 62 -19 19 -42 48 -49 63 -8 15 -28 37 -44 48 -16 11 -31 33 -34
48 -12 61 -12 68 3 68 13 0 15 22 12 150 -2 82 -5 153 -8 157 -8 12 11 9 24
-4z m884 -165 c7 -16 22 -39 35 -53 28 -32 42 -90 21 -90 -7 0 -22 14 -31 30
-10 17 -24 30 -32 30 -13 0 -75 -70 -75 -85 0 -23 -54 -115 -68 -115 -12 0
-13 3 -4 12 7 7 12 19 12 29 0 9 12 34 26 55 18 27 30 62 37 111 6 46 15 73
22 73 7 0 15 7 19 15 9 23 25 18 38 -12z m-943 -99 c13 -14 17 -25 11 -35 -13
-21 -46 16 -54 61 -5 33 -5 34 9 15 8 -11 24 -29 34 -41z m-723 -73 c-3 -25
-8 -66 -12 -91 -6 -42 -3 -50 45 -122 50 -74 52 -79 45 -126 -4 -32 -2 -52 5
-56 6 -4 11 -21 11 -38 0 -46 20 -103 41 -116 28 -18 63 31 56 80 -4 28 0 41
15 55 20 18 21 18 16 -46 -4 -55 -9 -67 -32 -88 -18 -15 -35 -22 -45 -17 -9 3
-21 7 -28 7 -24 1 -67 110 -77 199 -2 12 -17 55 -33 94 -41 96 -47 123 -47
240 l-1 101 24 -15 c20 -14 23 -21 17 -61z m1983 -168 c6 -73 4 -88 -13 -115
-11 -17 -22 -26 -24 -20 -2 7 3 19 11 27 17 16 16 24 -19 138 -13 43 -24 101
-24 130 l0 52 31 -64 c24 -50 33 -84 38 -148z m-183 67 c7 -22 11 -40 9 -40
-7 0 -55 89 -55 101 0 25 34 -20 46 -61z m69 -152 c19 -68 22 -73 47 -73 26 1
26 0 11 -17 -23 -25 -60 -23 -78 5 -8 13 -19 61 -23 106 -7 72 -6 80 7 66 8
-8 24 -47 36 -87z m-641 -1242 c195 -52 388 -156 486 -263 195 -214 333 -599
380 -1063 15 -147 1 -513 -35 -930 -23 -250 -6 -218 -143 -280 -570 -256
-1187 -315 -1776 -170 -124 30 -307 89 -397 128 -44 19 -46 22 -52 69 -12 95
-29 751 -24 913 15 427 148 876 351 1177 161 239 349 363 651 429 98 21 129
23 285 20 150 -3 189 -7 274 -30z m-1587 -2298 c5 -123 9 -225 7 -227 -6 -7
-80 25 -149 64 l-65 36 0 83 c0 76 2 86 32 131 27 41 136 135 157 135 4 0 12
-100 18 -222z m2573 43 c21 -17 37 -40 41 -60 6 -26 2 -34 -20 -50 -37 -26
-137 -81 -146 -81 -7 0 -2 96 12 202 l5 47 37 -15 c20 -8 52 -27 71 -43z"/>
<path d="M2940 6455 c-7 -9 -27 -23 -43 -31 -24 -13 -34 -13 -59 -3 -25 10
-31 10 -39 -2 -12 -19 -11 -76 2 -84 6 -5 8 -26 4 -60 -6 -45 -4 -57 15 -83
18 -24 21 -38 16 -66 -6 -30 -3 -37 19 -52 19 -12 25 -25 25 -52 0 -19 7 -44
17 -54 14 -16 15 -22 1 -56 -23 -58 -5 -79 42 -50 16 10 24 10 41 0 20 -12 25
-10 63 26 35 34 46 39 73 35 27 -4 34 -1 47 25 9 17 16 39 16 50 0 10 15 33
34 51 49 47 61 81 46 125 -10 30 -9 38 4 52 19 19 9 43 -29 68 -19 13 -25 25
-25 54 0 34 -4 40 -35 55 -19 9 -42 14 -51 10 -12 -4 -25 3 -40 22 -18 23 -32
29 -76 33 -42 3 -57 0 -68 -13z m123 -39 c14 -19 28 -26 53 -26 54 0 74 -15
74 -55 0 -26 7 -39 32 -59 30 -23 31 -27 19 -49 -11 -20 -11 -31 -1 -59 11
-30 10 -38 -5 -62 -10 -14 -31 -36 -46 -47 -19 -13 -29 -29 -29 -45 0 -45 -17
-64 -58 -64 -30 0 -42 -7 -68 -37 -28 -33 -34 -36 -48 -24 -13 11 -22 11 -42
2 -14 -6 -26 -11 -28 -11 -2 0 2 18 7 40 9 33 8 42 -6 58 -9 10 -17 35 -17 55
0 26 -6 40 -22 51 -17 12 -22 24 -20 50 2 19 -4 48 -13 66 -10 19 -15 50 -14
81 2 28 -3 55 -9 61 -7 7 -12 22 -12 34 0 20 4 21 44 17 38 -5 47 -2 77 26 29
27 40 31 74 27 27 -3 45 -12 58 -30z"/>
<path d="M2927 6359 c-21 -13 -47 -61 -47 -90 0 -12 8 -38 19 -58 27 -53 41
-102 41 -147 0 -78 51 -126 107 -102 41 18 95 78 101 113 2 11 10 32 18 47 30
57 9 139 -49 193 -51 47 -146 69 -190 44z"/>
<path d="M3551 6407 c-6 -8 -11 -31 -11 -53 0 -21 -2 -60 -3 -86 -1 -34 4 -55
19 -75 21 -28 64 -46 82 -34 18 11 42 77 44 119 1 44 -7 62 -28 62 -10 0 -14
12 -14 40 0 40 0 40 -39 40 -21 0 -44 -6 -50 -13z m69 -47 c0 -33 4 -40 19
-40 27 0 31 -30 12 -86 -18 -55 -36 -64 -69 -34 -22 21 -31 87 -15 104 4 4 6
22 4 41 -3 42 4 55 30 55 16 0 19 -7 19 -40z"/>
<path d="M3964 6070 c-23 -16 -49 -41 -58 -55 -9 -14 -25 -25 -35 -25 -10 0
-23 -6 -28 -12 -14 -17 -65 -182 -61 -194 2 -6 -8 -33 -21 -62 -23 -49 -23
-53 -7 -71 14 -16 16 -26 8 -54 -11 -40 -8 -47 23 -47 15 0 25 -10 33 -34 7
-19 20 -36 29 -38 11 -2 21 -20 28 -48 16 -66 36 -63 69 10 26 58 29 61 56 55
22 -5 30 -2 34 13 5 14 19 21 52 25 53 6 117 58 112 92 -4 24 -33 31 -64 14
-20 -10 -27 -10 -44 6 -18 16 -25 17 -54 7 -18 -7 -46 -12 -64 -12 -17 0 -33
-4 -37 -10 -9 -14 -35 0 -35 19 0 9 11 32 25 51 30 41 31 61 5 85 -23 21 -15
37 33 61 30 16 66 82 67 120 0 19 7 22 57 26 43 4 61 10 75 28 31 38 20 55
-35 53 -28 -2 -60 3 -77 12 -37 19 -38 19 -86 -15z m139 -14 c26 0 47 -4 47
-7 0 -17 -38 -34 -83 -39 -49 -5 -52 -7 -58 -38 -11 -54 -39 -98 -75 -117 -43
-23 -51 -48 -25 -81 l20 -26 -24 -36 c-27 -40 -32 -81 -13 -100 14 -14 54 -16
62 -3 9 14 117 23 132 10 13 -11 29 -10 67 6 27 11 21 -20 -9 -44 -14 -11 -46
-23 -70 -27 -25 -3 -48 -13 -51 -20 -3 -8 -19 -14 -37 -14 -29 0 -34 -5 -55
-52 l-23 -53 -8 35 c-5 19 -14 36 -20 38 -23 8 -50 42 -50 62 0 12 -9 22 -24
26 -22 5 -24 9 -15 31 13 36 11 63 -6 63 -20 0 -19 19 5 58 11 18 20 45 20 60
0 15 11 59 24 97 18 57 28 73 52 84 16 8 31 19 33 24 2 6 20 26 40 44 30 28
41 33 66 27 17 -3 51 -7 78 -8z"/>
<path d="M4165 6000 c-4 -6 -24 -19 -45 -30 -41 -21 -90 -65 -90 -80 0 -5 -6
-15 -13 -22 -34 -35 -47 -68 -43 -109 3 -23 10 -48 18 -55 7 -7 47 -16 88 -20
47 -4 89 -14 113 -27 42 -23 58 -15 51 27 -2 12 -6 43 -10 69 -5 33 -14 53
-30 66 -38 30 -44 59 -23 114 11 26 19 54 19 62 0 17 -26 20 -35 5z"/>
<path d="M2710 3027 c-14 -7 -31 -26 -39 -42 -12 -25 -12 -32 0 -54 28 -50 65
-61 220 -66 79 -3 407 -17 729 -31 736 -34 965 -36 1003 -11 50 33 48 101 -5
138 -37 27 -42 27 -1088 59 -777 24 -787 24 -820 7z m965 -53 c807 -23 892
-28 915 -43 33 -24 37 -55 8 -75 -27 -19 -106 -20 -394 -6 -226 11 -1384 60
-1427 60 -17 0 -38 10 -53 26 -25 24 -25 26 -8 45 9 10 29 19 43 19 14 0 426
-11 916 -26z"/>
<path d="M2693 2821 c-76 -82 -141 -270 -128 -370 13 -94 85 -282 120 -311 33
-27 33 4 0 72 -19 39 -33 73 -31 75 1 2 18 -3 37 -11 68 -28 326 -49 565 -44
l223 4 -16 -26 c-9 -14 -32 -44 -51 -68 -26 -32 -32 -46 -24 -54 26 -26 122
104 171 231 39 101 48 193 28 287 -24 113 -90 224 -133 224 -23 0 -16 -19 21
-62 30 -35 74 -133 64 -142 -2 -2 -53 9 -114 24 -217 55 -513 63 -694 20 -46
-11 -86 -18 -89 -15 -3 2 16 41 42 86 55 93 59 134 9 80z m535 -172 c124 -13
313 -55 324 -71 23 -33 -12 -250 -46 -285 -6 -7 -70 -16 -151 -23 -227 -17
-604 13 -692 56 -35 17 -39 24 -51 79 -16 78 -7 182 17 194 19 11 161 48 206
54 63 9 300 7 393 -4z"/>
<path d="M3076 2585 c-4 -11 -13 -14 -25 -10 -24 7 -37 -11 -21 -30 10 -12 9
-15 -8 -15 -16 0 -20 -6 -19 -35 1 -27 5 -35 19 -35 10 0 18 -4 18 -10 0 -5 9
-10 20 -10 11 0 20 -4 20 -10 0 -5 7 -10 15 -10 9 0 15 9 15 22 0 17 3 19 12
10 22 -22 41 -14 36 13 -4 21 -2 24 12 20 10 -3 21 -1 24 4 6 10 -19 41 -34
41 -4 0 -6 10 -3 21 5 19 3 21 -21 17 -20 -4 -26 -2 -24 11 4 21 -28 26 -36 6z"/>
<path d="M3856 2789 c-39 -31 -72 -88 -101 -173 -49 -147 -25 -321 66 -472 44
-71 65 -92 81 -76 9 9 7 18 -10 39 -31 39 -75 113 -71 118 3 2 55 -5 116 -15
206 -35 626 -44 697 -15 17 8 17 7 1 -26 -10 -19 -29 -51 -42 -71 -28 -45 -28
-48 -4 -48 39 0 143 204 163 319 10 59 9 81 -5 147 -26 120 -100 264 -124 241
-3 -4 10 -42 30 -84 60 -131 62 -126 -35 -92 -140 48 -250 63 -463 63 -129 -1
-216 -6 -270 -16 -44 -9 -82 -14 -84 -12 -12 11 36 98 74 135 42 41 49 59 21
59 -7 0 -25 -10 -40 -21z m599 -202 c88 -17 200 -55 241 -82 26 -16 26 -20 21
-89 -3 -39 -13 -94 -22 -122 -17 -51 -18 -51 -74 -64 -122 -28 -515 -14 -733
26 -85 16 -87 17 -98 50 -20 59 -28 147 -19 208 4 32 10 60 13 63 3 3 45 11
93 19 116 17 467 12 578 -9z"/>
<path d="M4220 2529 c0 -18 -3 -19 -15 -9 -17 14 -38 3 -31 -16 4 -9 -4 -18
-19 -24 -29 -11 -34 -40 -6 -40 14 0 17 -6 13 -25 -4 -25 11 -35 23 -15 9 15
25 12 19 -4 -8 -21 17 -32 31 -13 9 13 14 14 25 4 10 -9 13 -9 17 1 3 6 14 12
25 12 15 0 19 5 15 20 -3 11 -1 23 4 26 15 9 10 22 -12 29 -15 5 -18 10 -10
18 18 18 13 27 -14 27 -14 0 -28 7 -31 15 -9 23 -34 18 -34 -6z"/>
<path d="M3767 1883 c-3 -81 -13 -185 -22 -230 -18 -92 -58 -210 -79 -231 -25
-25 -52 2 -84 85 -50 130 -74 239 -81 368 -5 97 -9 120 -21 120 -12 0 -16 -17
-18 -80 -4 -101 12 -204 50 -325 53 -168 97 -230 151 -216 33 8 71 83 104 202
24 89 27 116 27 266 1 108 -3 171 -10 178 -8 8 -13 -30 -17 -137z"/>
<path d="M2676 1932 c-8 -13 46 -89 74 -106 43 -25 154 -38 325 -39 109 0 167
3 183 12 41 22 13 30 -91 24 -128 -7 -347 12 -388 33 -17 8 -40 31 -51 50 -19
32 -41 43 -52 26z"/>
<path d="M4551 1838 c-12 -12 -21 -25 -21 -28 0 -4 -15 -15 -34 -25 -30 -16
-51 -17 -212 -11 -99 3 -201 10 -229 15 -55 10 -86 2 -63 -16 25 -20 135 -35
295 -40 138 -5 170 -3 207 11 41 16 96 70 96 95 0 21 -20 21 -39 -1z"/>
<path d="M2868 493 c7 -3 16 -2 19 1 4 3 -2 6 -13 5 -11 0 -14 -3 -6 -6z"/>
<path d="M3018 493 c7 -3 16 -2 19 1 4 3 -2 6 -13 5 -11 0 -14 -3 -6 -6z"/>
</g>
</svg>
